# xmcd
#
# Track frame offsets: 
#        182
#        25420
#        45200
#        68517
#        92500
#        117037
#        139737
#        162090
#        186235
#        205425
#        229217
#        247105
#        263790
#
# Disc length: 3795 seconds
#
# Revision: 6
# Processed by: cddbd v1.5.2PL0 Copyright (c) Steve Scherf et al.
# Submitted via: ExactAudioCopy v0.95b2
#
DISCID=ac0ed10d
DTITLE=Curtis Mayfield - New World Order
DYEAR=1996
DGENRE=R&B
TTITLE0=New World Order
TTITLE1=Ms. Martha
TTITLE2=Back To Living Again
TTITLE3=No One Knows About A Good Thing (You Don't Have To Cry)
TTITLE4=Just A Little Bit Of Love
TTITLE5=We People Who Are Darker Than Blue
TTITLE6=I Believe In You
TTITLE7=Here But I'm Gone
TTITLE8=It Was Love That We Needed
TTITLE9=The Got Dang Song
TTITLE10=The Girl I Find Stays On My Mind
TTITLE11=Let's Not Forget
TTITLE12=Oh So Beautiful
EXTD=
EXTT0=
EXTT1=
EXTT2=
EXTT3=
EXTT4=
EXTT5=
EXTT6=
EXTT7=
EXTT8=
EXTT9=
EXTT10=
EXTT11=
EXTT12=
PLAYORDER=
